HIERARCHY
ROOT Hips
{
	OFFSET 0.00000 0.00000 0.00000
	CHANNELS 6 Xposition Yposition Zposition Zrotation Yrotation Xrotation 
	JOINT RightUpLegDummy
	{
		OFFSET 0 0 0
		CHANNELS 3 Zrotation Yrotation Xrotation
		JOINT RightUpLeg
		{
			OFFSET -3.52197 -3.41223 0.04002
			CHANNELS 3 Zrotation Yrotation Xrotation
			JOINT RightLeg
			{
				OFFSET 0.00006 -17.42390 1.60435
				CHANNELS 3 Zrotation Yrotation Xrotation
				JOINT RightFoot
				{
					OFFSET 0.06154 -16.50078 -1.63900
					CHANNELS 3 Zrotation Yrotation Xrotation
					JOINT RightToes
					{
						OFFSET 0.00298 -1.73825 3.34613
						CHANNELS 3 Zrotation Yrotation Xrotation
						End Site
						{
							OFFSET 0.00000 0.00000 0.00000
						}
					}
				}
			}
		}
	}
	JOINT SpineDummy
	{
		OFFSET 0 0 0
		CHANNELS 3 Zrotation Yrotation Xrotation
		JOINT Spine
		{
			OFFSET 0.00000 4.68130 0.00000
			CHANNELS 3 Zrotation Yrotation Xrotation
			JOINT Spine1
			{
				OFFSET -0.00000 10.10138 0.05002
				CHANNELS 3 Zrotation Yrotation Xrotation
				JOINT HEadDummy
				{
					OFFSET 0 0 0
					CHANNELS 3 Zrotation Yrotation Xrotation
					JOINT Head
					{
						OFFSET -0.00000 3.43865 0.00438
						CHANNELS 3 Zrotation Yrotation Xrotation
						End Site
						{
							OFFSET 0.00000 0.00000 0.00000
						}
					}
				}
				JOINT LeftShoulder1Dummy
				{
					OFFSET 0 0 0
					CHANNELS 3 Zrotation Yrotation Xrotation
					JOINT LeftShoulder1
					{
						OFFSET 3.53937 -0.14262 -0.08662
						CHANNELS 3 Zrotation Yrotation Xrotation
						JOINT LeftArm
						{
							OFFSET 4.04833 -0.00133 0.12681
							CHANNELS 3 Zrotation Yrotation Xrotation
							JOINT LeftForeArm
							{
								OFFSET 10.33880 -0.01036 -0.55515
								CHANNELS 3 Zrotation Yrotation Xrotation
								JOINT LeftHand
								{
									OFFSET 8.69677 0.07543 0.40060
									CHANNELS 3 Zrotation Yrotation Xrotation
									End Site
									{
										OFFSET 0.00000 0.00000 0.00000
									}
								}
							}
						}
					}
				}
				JOINT RightShoulderDummy
				{
					OFFSET 0 0 0
					CHANNELS 3 Zrotation Yrotation Xrotation
					JOINT RightShoulder
					{
						OFFSET -3.53937 -0.14262 -0.08660
						CHANNELS 3 Zrotation Yrotation Xrotation
						JOINT RightArm
						{
							OFFSET -4.04833 -0.00133 0.12683
							CHANNELS 3 Zrotation Yrotation Xrotation
							JOINT RightForeArm
							{
								OFFSET -10.37987 -0.01039 -0.55511
								CHANNELS 3 Zrotation Yrotation Xrotation
								JOINT RightHand
								{
									OFFSET -8.67398 0.07538 0.40058
									CHANNELS 3 Zrotation Yrotation Xrotation
									End Site
									{
										OFFSET 0.00000 0.00000 0.00000
									}
								}
							}
						}
					}
				}
			}
		}
	}
	JOINT LeftUpLegDummy
	{
		OFFSET 0 0 0
		CHANNELS 3 Zrotation Yrotation Xrotation
		JOINT LeftUpLeg
		{
			OFFSET 3.52197 -3.41223 0.04002
			CHANNELS 3 Zrotation Yrotation Xrotation
			JOINT LeftLeg
			{
				OFFSET -0.00012 -17.42399 1.60337
				CHANNELS 3 Zrotation Yrotation Xrotation
				JOINT LeftFoot
				{
					OFFSET -0.09972 -16.50070 -1.63802
					CHANNELS 3 Zrotation Yrotation Xrotation
					JOINT LeftToes
					{
						OFFSET -0.01575 -1.73823 3.34611
						CHANNELS 3 Zrotation Yrotation Xrotation
						End Site
						{
							OFFSET 0.00000 0.00000 0.00000
						}
					}
				}
			}
		}
	}
}
MOTION
Frames: 11
Frame Time: 0.033333
74.2295 40.5663 -31.7177 -171.1960 -86.2467 170.2750 0.0000 0.0000 0.0000 -3.3894 -7.3396 0.2681 2.9870 -6.7772 2.9069 -0.8301 0.0635 -1.0337 -0.0000 0.0000 -0.0000 0.0000 0.0000 0.0000 -1.7472 -0.7052 -1.7134 2.2303 -1.2322 7.4674 0.0000 0.0000 0.0000 -0.8544 2.6402 -6.9858 0.0000 0.0000 0.0000 -9.6101 -1.2415 0.8094 -4.4444 11.7905 -12.8637 -2.7077 -3.1168 12.3076 5.3221 0.0205 -0.2441 0.0000 0.0000 0.0000 4.7144 -0.1323 0.4255 5.6230 -1.1726 -14.5332 5.5019 3.3405 -16.8084 -23.0559 8.2053 -2.6969 0.0000 0.0000 0.0000 2.0945 5.1670 1.0213 -3.3026 10.7771 1.7808 3.7997 -0.3039 -1.8479 0.0000 -0.0000 0.0000
74.2344 40.5663 -31.7224 -171.2150 -86.2440 170.3010 0.0000 0.0000 0.0000 -3.3803 -7.3294 0.2587 2.9842 -6.8033 2.9002 -0.8436 0.0645 -1.0478 -0.0000 0.0000 -0.0000 0.0000 0.0000 0.0000 -1.7253 -0.6795 -1.5892 2.0158 -1.1477 7.1696 0.0000 0.0000 0.0000 -0.6041 2.4662 -6.7155 0.0000 0.0000 0.0000 -9.3097 -1.4331 0.8285 -4.5153 11.9293 -12.8249 -2.6997 -3.0736 12.4794 5.3221 0.0205 -0.2441 0.0000 0.0000 0.0000 5.7940 -0.0229 0.4728 4.6285 -1.3877 -14.3279 5.5969 3.4074 -17.8052 -23.3090 6.7733 -2.4410 0.0000 0.0000 0.0000 2.1039 5.1825 0.9830 -3.3006 10.7578 1.8282 3.8000 -0.3036 -1.8691 0.0000 -0.0000 0.0000
74.2451 40.5663 -31.7306 -171.0070 -86.2275 170.0960 0.0000 0.0000 0.0000 -3.3440 -7.3020 0.2464 2.9794 -6.8392 2.8885 -0.8285 0.0635 -1.0613 -0.0000 0.0000 -0.0000 0.0000 0.0000 0.0000 -1.7251 -0.6395 -1.4051 1.8490 -1.0588 6.7604 0.0000 0.0000 0.0000 -0.3646 2.1767 -6.2382 0.0000 0.0000 0.0000 -9.0859 -1.7848 0.8763 -4.5038 12.2712 -12.6737 -2.7175 -3.0584 12.5230 5.3221 0.0205 -0.2441 0.0000 0.0000 0.0000 7.0732 0.0982 0.5307 3.4019 -1.6209 -14.2730 5.6482 3.3509 -18.8254 -23.7594 5.1757 -2.1667 0.0000 0.0000 0.0000 2.1370 5.2076 0.9319 -3.2924 10.7462 1.8983 3.7757 -0.3006 -1.8934 0.0000 -0.0000 0.0000
74.2540 40.5659 -31.7384 -170.7430 -86.1880 169.8050 0.0000 0.0000 0.0000 -3.3078 -7.2737 0.2676 2.9760 -6.8487 2.8805 -0.7493 0.0585 -1.0865 -0.0000 0.0000 -0.0000 0.0000 0.0000 0.0000 -1.6783 -0.5882 -1.1311 1.6444 -0.9525 6.3034 0.0000 0.0000 0.0000 -0.1156 1.8547 -5.6507 0.0000 0.0000 0.0000 -8.8218 -2.1189 0.9178 -4.5465 12.6323 -12.4859 -2.7478 -3.1110 12.4622 5.3221 0.0205 -0.2441 0.0000 0.0000 0.0000 8.1494 0.2428 0.5880 2.3986 -1.9728 -14.1273 5.7001 3.2271 -18.9488 -23.7690 4.8571 -2.1018 0.0000 0.0000 0.0000 2.1789 5.2371 0.9235 -3.2763 10.7562 1.9641 3.7457 -0.2971 -1.9179 0.0000 -0.0000 0.0000
74.2581 40.5638 -31.7478 -170.7560 -86.1205 169.7690 0.0000 0.0000 0.0000 -3.2801 -7.2449 0.2944 2.9655 -6.8090 2.9058 -0.7335 0.0576 -1.1103 -0.0000 0.0000 -0.0000 0.0000 0.0000 0.0000 -1.5858 -0.4884 -0.7958 1.4518 -0.8036 5.8420 0.0000 0.0000 0.0000 0.0789 1.4665 -5.0469 0.0000 0.0000 0.0000 -8.6798 -2.4125 0.9578 -4.5498 12.8538 -12.3641 -2.7579 -3.1779 12.6238 5.3221 0.0205 -0.2441 0.0000 0.0000 0.0000 8.6638 0.2727 0.6103 2.0059 -2.3364 -13.5856 5.8856 3.3284 -19.3260 -23.5075 5.2736 -2.1618 0.0000 0.0000 0.0000 2.2207 5.2841 0.9503 -3.2775 10.7758 2.0343 3.7202 -0.2939 -1.9597 0.0000 -0.0000 0.0000
74.2615 40.5610 -31.7597 -171.0540 -86.0170 170.0350 0.0000 0.0000 0.0000 -3.2589 -7.2289 0.2787 2.9647 -6.7152 2.9632 -0.8194 0.0631 -1.1277 -0.0000 0.0000 -0.0000 0.0000 0.0000 0.0000 -1.5661 -0.4310 -0.5877 1.3387 -0.7192 5.6574 0.0000 0.0000 0.0000 0.2212 1.2732 -4.5116 0.0000 0.0000 0.0000 -8.5031 -2.3418 0.9371 -4.7115 12.7884 -12.4032 -2.7306 -3.2578 12.9164 5.3221 0.0205 -0.2441 0.0000 0.0000 0.0000 9.0261 0.2519 0.6193 1.7585 -2.4049 -13.0803 6.1163 3.4754 -20.4764 -23.6288 5.4616 -2.2114 0.0000 0.0000 0.0000 2.2559 5.3344 0.9672 -3.2905 10.8241 2.0955 3.6928 -0.2903 -2.0071 0.0000 -0.0000 0.0000
74.2675 40.5589 -31.7690 -171.2700 -85.9148 170.2480 0.0000 0.0000 0.0000 -3.2569 -7.2503 0.2419 3.0037 -6.6107 3.0120 -0.8287 0.0639 -1.1818 -0.0000 0.0000 -0.0000 0.0000 0.0000 0.0000 -1.5593 -0.3677 -0.5265 1.3663 -0.6605 5.6339 0.0000 0.0000 0.0000 0.1872 1.3034 -4.1649 0.0000 0.0000 0.0000 -8.6540 -2.3668 0.9491 -4.7250 12.7634 -12.4820 -2.7045 -3.2880 12.7680 5.3221 0.0205 -0.2441 0.0000 0.0000 0.0000 9.1229 0.1890 0.6123 1.6589 -2.4456 -13.1971 6.0798 3.4199 -20.5469 -23.9144 5.5331 -2.2538 0.0000 0.0000 0.0000 2.2784 5.3598 0.9486 -3.2822 10.9035 2.1481 3.6716 -0.2866 -2.0466 0.0000 -0.0000 0.0000
74.2745 40.5565 -31.7738 -171.1620 -85.8646 170.1490 0.0000 0.0000 0.0000 -3.2604 -7.2801 0.2040 3.0493 -6.5541 3.0750 -0.7309 0.0579 -1.2897 -0.0000 0.0000 -0.0000 0.0000 0.0000 0.0000 -1.4829 -0.3641 -0.8667 1.4463 -0.6817 6.2128 0.0000 0.0000 0.0000 -0.0953 1.6251 -4.8002 0.0000 0.0000 0.0000 -9.1474 -2.4510 0.9891 -4.7234 12.8106 -12.9086 -2.5288 -3.4654 12.4532 5.3221 0.0205 -0.2441 0.0000 0.0000 0.0000 8.7702 0.1582 0.5955 2.1526 -2.4152 -13.7085 5.8971 3.3784 -19.9031 -23.8865 6.4632 -2.4376 0.0000 0.0000 0.0000 2.3002 5.3759 0.8882 -3.2524 10.9491 2.2526 3.6508 -0.2821 -2.1095 0.0000 -0.0000 0.0000
74.2823 40.5511 -31.7795 -171.1550 -85.8310 170.1550 0.0000 0.0000 0.0000 -3.2389 -7.2624 0.0904 3.0283 -6.5106 3.2665 -0.7409 0.0591 -1.4225 -0.0000 0.0000 -0.0000 0.0000 0.0000 0.0000 -1.3464 -0.3861 -1.4169 1.4064 -0.7071 7.1575 0.0000 0.0000 0.0000 -0.4997 1.8879 -6.3906 0.0000 0.0000 0.0000 -9.6859 -2.5586 1.0362 -5.0810 12.8673 -13.7823 -2.1061 -4.1613 13.2479 5.3221 0.0205 -0.2441 0.0000 0.0000 0.0000 8.5903 0.1228 0.5838 3.2821 -2.1873 -13.0819 6.3700 4.4155 -24.7743 -25.0722 9.2724 -3.1943 0.0000 0.0000 0.0000 2.3238 5.4080 0.7938 -3.2345 10.9563 2.4242 3.5937 -0.2734 -2.2169 0.0000 -0.0000 0.0000
74.2933 40.5426 -31.7876 -171.9540 -85.7321 170.9670 0.0000 0.0000 0.0000 -3.2376 -7.2332 -0.1300 2.9527 -6.3831 3.6319 -0.7830 0.0605 -1.6284 -0.0000 0.0000 -0.0000 0.0000 0.0000 0.0000 -1.2149 -0.3595 -1.6879 1.2195 -0.6435 7.7567 0.0000 0.0000 0.0000 -0.4994 2.0329 -6.7000 0.0000 0.0000 0.0000 -10.2211 -2.7764 1.1035 -6.0593 13.0069 -14.6485 -1.6054 -5.6893 15.4526 5.3221 0.0205 -0.2441 0.0000 0.0000 0.0000 9.1876 0.0583 0.5926 4.7198 -1.8640 -11.3727 7.4109 6.9315 -36.0355 -28.2860 12.6865 -4.4310 0.0000 0.0000 0.0000 2.3050 5.4193 0.7221 -3.2292 11.0480 2.5537 3.5163 -0.2635 -2.3193 0.0000 -0.0000 0.0000
74.3064 40.5333 -31.7924 -173.3350 -85.6062 172.3140 0.0000 0.0000 0.0000 -3.3305 -7.2801 -0.3052 2.9044 -6.2193 4.0476 -0.4315 0.0280 -2.0161 -0.0000 0.0000 -0.0000 0.0000 0.0000 0.0000 -1.0595 -0.3303 -1.4692 0.9929 -0.5638 7.7784 0.0000 0.0000 0.0000 -0.6727 1.8547 -6.1361 0.0000 0.0000 0.0000 -11.2370 -3.2136 1.2417 -7.6104 13.4714 -15.1123 -1.2192 -8.2046 17.6682 5.3221 0.0205 -0.2441 0.0000 0.0000 0.0000 10.4076 0.1939 0.6562 5.9519 -2.0671 -12.4672 6.8831 8.4509 -35.1474 -28.5073 12.5292 -4.4383 0.0000 0.0000 0.0000 2.2248 5.3762 0.7453 -3.2063 11.2334 2.5829 3.5031 -0.2604 -2.3858 0.0000 -0.0000 0.0000
